M48
; DRILL file {KiCad 9.0.2} date 2025-06-11T10:15:38-0700
; FORMAT={-:-/ absolute / metric / decimal}
; #@! TF.CreationDate,2025-06-11T10:15:38-07:00
; #@! TF.GenerationSoftware,Kicad,Pcbnew,9.0.2
; #@! TF.FileFunction,Plated,1,4,PTH
FMAT,2
METRIC
; #@! TA.AperFunction,Plated,PTH,ViaDrill
T1C0.300
; #@! TA.AperFunction,Plated,PTH,ComponentDrill
T2C0.700
; #@! TA.AperFunction,Plated,PTH,ComponentDrill
T3C0.800
; #@! TA.AperFunction,Plated,PTH,ComponentDrill
T4C1.000
; #@! TA.AperFunction,Plated,PTH,ComponentDrill
T5C1.500
%
G90
G05
T1
X73.16Y-84.45
X73.56Y-79.05
X77.91Y-82.45
X78.36Y-86.45
X79.884Y-98.644
X79.901Y-155.703
X80.344Y-136.061
X80.66Y-98.45
X80.66Y-155.45
X80.744Y-117.061
X81.01Y-136.505
X81.16Y-80.65
X81.26Y-159.15
X81.36Y-139.905
X81.56Y-85.05
X81.76Y-117.3
X81.99Y-120.82
X82.31Y-101.65
X82.76Y-79.45
X82.935Y-105.975
X84.76Y-140.05
X85.56Y-97.75
X86.394Y-116.616
X86.426Y-135.905
X86.435Y-138.725
X86.56Y-154.75
X87.846Y-85.386
X88.05Y-84.05
X88.06Y-98.35
X88.06Y-155.35
X88.078Y-117.3
X88.16Y-79.45
X88.31Y-162.35
X88.328Y-136.8
X88.96Y-81.85
X89.06Y-101.35
X89.06Y-158.35
X89.078Y-120.3
X90.96Y-139.3
X92.31Y-106.6
X94.16Y-82.45
X94.715Y-124.35
X98.76Y-155.45
X98.901Y-136.197
X99.56Y-86.85
X99.66Y-136.45
X99.66Y-155.45
X99.694Y-98.206
X99.714Y-117.11
X100.36Y-98.65
X100.36Y-158.95
X100.41Y-117.505
X100.56Y-102.05
X100.61Y-120.905
X100.81Y-107.1
X100.96Y-139.9
X103.96Y-97.75
X104.56Y-158.35
X104.76Y-135.65
X104.828Y-138.8
X105.06Y-100.85
X105.06Y-140.15
X105.078Y-119.8
X105.26Y-154.75
X105.31Y-116.95
X106.81Y-98.35
X107.06Y-136.35
X107.06Y-155.35
X107.26Y-78.95
X107.328Y-117.55
X107.81Y-101.35
X107.886Y-80.424
X108.06Y-139.35
X108.06Y-158.35
X108.328Y-120.55
X112.06Y-67.6
X112.36Y-79.05
X114.36Y-64.05
X116.66Y-80.45
X117.16Y-83.05
X117.56Y-80.049
X117.83Y-89.58
X118.421Y-155.756
X119.16Y-155.45
X119.209Y-99.65
X119.209Y-136.299
X119.81Y-98.85
X119.96Y-102.25
X120.01Y-136.705
X120.36Y-121.15
X120.36Y-159.05
X120.76Y-139.85
X120.96Y-117.25
X124.06Y-158.35
X124.328Y-120.05
X124.36Y-135.7
X124.36Y-154.7
X124.56Y-74.6
X124.56Y-76.35
X124.56Y-97.65
X124.56Y-138.85
X124.81Y-100.6
X125.06Y-111.85
X125.185Y-149.225
X126.31Y-98.35
X126.56Y-136.35
X126.56Y-155.35
X127.06Y-107.85
X127.06Y-124.75
X127.31Y-101.35
X127.36Y-119.25
X127.56Y-111.35
X127.56Y-139.35
X127.56Y-158.35
X128.06Y-122.35
X128.31Y-118.35
X128.56Y-105.75
X128.76Y-83.05
X128.81Y-116.1
X128.96Y-124.1
X129.011Y-80.35
X129.21Y-85.6
X129.584Y-83.026
X129.71Y-93.6
X130.06Y-109.269
X130.16Y-160.05
X130.31Y-118.6
X131.06Y-143.6
X131.56Y-123.85
X132.816Y-118.603
X132.935Y-148.225
X133.06Y-91.35
X133.56Y-86.85
X133.56Y-112.389
X133.56Y-115.85
X133.685Y-93.725
X135.56Y-116.7
X136.06Y-87.1
X136.56Y-106.35
X136.81Y-98.65
X136.81Y-101.05
X137.31Y-115.85
X137.56Y-79.95
X137.56Y-123.1
X138.06Y-108.35
X138.36Y-138.25
X138.36Y-155.85
X138.71Y-140.25
X138.76Y-120.85
X138.81Y-119.1
X139.125Y-159.25
X142.384Y-116.874
X142.445Y-98.185
X142.76Y-97.45
X142.96Y-155.85
X143.06Y-115.35
X143.06Y-138.85
X143.06Y-157.85
X143.16Y-136.65
X144.06Y-105.35
X144.56Y-123.1
X144.86Y-105.35
X145.31Y-111.85
X145.435Y-129.225
X145.46Y-116.35
X145.493Y-97.917
X146.028Y-99.882
X146.06Y-93.35
X146.06Y-143.1
X146.16Y-124.1
X146.31Y-91.85
X146.36Y-143.85
X146.628Y-105.839
X146.935Y-108.975
X147.185Y-124.225
X147.31Y-111.85
X147.561Y-118.85
X147.81Y-124.85
X149.31Y-122.85
T2
X131.81Y-64.05
X131.81Y-69.13
T3
X75.498Y-80.93
X75.498Y-83.43
X81.91Y-103.85
X81.91Y-123.05
X81.91Y-141.85
X82.31Y-161.05
X84.41Y-103.85
X84.41Y-123.05
X84.41Y-141.85
X84.81Y-161.05
X85.36Y-80.9
X85.36Y-83.4
X101.31Y-103.85
X101.31Y-141.65
X101.46Y-123.05
X101.51Y-160.85
X103.81Y-103.85
X103.81Y-141.65
X103.96Y-123.05
X104.01Y-160.85
X112.66Y-82.05
X115.16Y-82.05
X120.26Y-103.85
X120.71Y-141.45
X120.86Y-123.05
X120.91Y-160.85
X122.76Y-103.85
X123.21Y-141.45
X123.36Y-123.05
X123.41Y-160.85
X125.81Y-64.35
X128.31Y-64.35
X139.31Y-141.65
X139.46Y-123.05
X139.51Y-160.65
X139.71Y-103.85
X141.81Y-141.65
X141.96Y-123.05
X142.01Y-160.65
X142.21Y-103.85
T4
X109.785Y-68.85
X109.785Y-71.39
X109.785Y-73.93
X109.785Y-76.47
X113.56Y-70.35
X113.56Y-72.85
X113.56Y-75.35
X128.06Y-70.35
X128.06Y-75.35
X131.67Y-72.27
X131.67Y-74.81
X131.67Y-77.35
X131.67Y-79.89
X131.67Y-82.43
X131.67Y-84.97
X131.67Y-87.51
X131.67Y-90.05
X131.67Y-92.59
X131.67Y-95.13
X131.67Y-97.67
X131.67Y-100.21
X131.67Y-102.75
X131.67Y-105.29
X131.67Y-107.83
X131.67Y-110.37
X131.67Y-112.91
X131.67Y-115.45
X131.67Y-117.99
X131.67Y-120.53
X149.45Y-72.27
X149.45Y-74.81
X149.45Y-77.35
X149.45Y-79.89
X149.45Y-82.43
X149.45Y-84.97
X149.45Y-87.51
X149.45Y-90.05
X149.45Y-92.59
X149.45Y-95.13
X149.45Y-97.67
X149.45Y-100.21
X149.45Y-102.75
X149.45Y-105.29
X149.45Y-107.83
X149.45Y-110.37
X149.45Y-112.91
X149.45Y-115.45
X149.45Y-117.99
X149.45Y-120.53
T5
X79.75Y-92.35
X79.75Y-111.31
X79.75Y-130.31
X79.75Y-149.31
X86.1Y-89.81
X86.1Y-108.77
X86.1Y-127.77
X86.1Y-146.77
X98.75Y-111.31
X98.83Y-92.35
X98.83Y-130.31
X98.83Y-149.31
X105.1Y-108.77
X105.18Y-89.81
X105.18Y-127.77
X105.18Y-146.77
X117.83Y-92.35
X117.83Y-111.31
X117.83Y-130.31
X117.83Y-149.31
X124.18Y-89.81
X124.18Y-108.77
X124.18Y-127.77
X124.18Y-146.77
X136.75Y-130.31
X136.83Y-92.35
X136.83Y-111.31
X136.83Y-149.31
X143.1Y-127.77
X143.18Y-89.81
X143.18Y-108.77
X143.18Y-146.77
T5
G00X120.41Y-67.25
M15
G01X121.71Y-67.25
M16
G05
G00X120.41Y-78.45
M15
G01X121.71Y-78.45
M16
G05
M30
