M48
; DRILL file {KiCad 9.0.2} date 2025-06-11T10:15:38-0700
; FORMAT={-:-/ absolute / metric / decimal}
; #@! TF.CreationDate,2025-06-11T10:15:38-07:00
; #@! TF.GenerationSoftware,Kicad,Pcbnew,9.0.2
; #@! TF.FileFunction,NonPlated,1,4,NPTH
FMAT,2
METRIC
; #@! TA.AperFunction,NonPlated,NPTH,ComponentDrill
T1C1.750
; #@! TA.AperFunction,NonPlated,NPTH,ComponentDrill
T2C2.400
; #@! TA.AperFunction,NonPlated,NPTH,ComponentDrill
T3C4.000
%
G90
G05
T1
X78.48Y-94.89
X78.48Y-113.85
X78.48Y-132.85
X78.48Y-151.85
X88.64Y-94.89
X88.64Y-113.85
X88.64Y-132.85
X88.64Y-151.85
X97.48Y-113.85
X97.56Y-94.89
X97.56Y-132.85
X97.56Y-151.85
X107.64Y-113.85
X107.72Y-94.89
X107.72Y-132.85
X107.72Y-151.85
X116.56Y-94.89
X116.56Y-113.85
X116.56Y-132.85
X116.56Y-151.85
X126.72Y-94.89
X126.72Y-113.85
X126.72Y-132.85
X126.72Y-151.85
X135.48Y-132.85
X135.56Y-94.89
X135.56Y-113.85
X135.56Y-151.85
X145.64Y-132.85
X145.72Y-94.89
X145.72Y-113.85
X145.72Y-151.85
T2
X71.06Y-165.35
X71.164Y-63.186
X154.56Y-165.35
X154.664Y-63.186
T3
X83.56Y-94.89
X83.56Y-113.85
X83.56Y-132.85
X83.56Y-151.85
X102.56Y-113.85
X102.64Y-94.89
X102.64Y-132.85
X102.64Y-151.85
X121.64Y-94.89
X121.64Y-113.85
X121.64Y-132.85
X121.64Y-151.85
X140.56Y-132.85
X140.64Y-94.89
X140.64Y-113.85
X140.64Y-151.85
M30
