%TF.GenerationSoftware,KiCad,Pcbnew,9.0.2*%
%TF.CreationDate,2025-06-11T10:15:39-07:00*%
%TF.ProjectId,west_workshop_2025,77657374-5f77-46f7-926b-73686f705f32,888*%
%TF.SameCoordinates,Original*%
%TF.FileFunction,Legend,Bot*%
%TF.FilePolarity,Positive*%
%FSLAX46Y46*%
G04 Gerber Fmt 4.6, Leading zero omitted, Abs format (unit mm)*
G04 Created by KiCad (PCBNEW 9.0.2) date 2025-06-11 10:15:39*
%MOMM*%
%LPD*%
G01*
G04 APERTURE LIST*
%ADD10C,0.150000*%
%ADD11C,0.120000*%
G04 APERTURE END LIST*
D10*
X107352857Y-123409501D02*
X107400476Y-123457121D01*
X107400476Y-123457121D02*
X107543333Y-123504740D01*
X107543333Y-123504740D02*
X107638571Y-123504740D01*
X107638571Y-123504740D02*
X107781428Y-123457121D01*
X107781428Y-123457121D02*
X107876666Y-123361882D01*
X107876666Y-123361882D02*
X107924285Y-123266644D01*
X107924285Y-123266644D02*
X107971904Y-123076168D01*
X107971904Y-123076168D02*
X107971904Y-122933311D01*
X107971904Y-122933311D02*
X107924285Y-122742835D01*
X107924285Y-122742835D02*
X107876666Y-122647597D01*
X107876666Y-122647597D02*
X107781428Y-122552359D01*
X107781428Y-122552359D02*
X107638571Y-122504740D01*
X107638571Y-122504740D02*
X107543333Y-122504740D01*
X107543333Y-122504740D02*
X107400476Y-122552359D01*
X107400476Y-122552359D02*
X107352857Y-122599978D01*
X106400476Y-123504740D02*
X106971904Y-123504740D01*
X106686190Y-123504740D02*
X106686190Y-122504740D01*
X106686190Y-122504740D02*
X106781428Y-122647597D01*
X106781428Y-122647597D02*
X106876666Y-122742835D01*
X106876666Y-122742835D02*
X106971904Y-122790454D01*
X105781428Y-122504740D02*
X105686190Y-122504740D01*
X105686190Y-122504740D02*
X105590952Y-122552359D01*
X105590952Y-122552359D02*
X105543333Y-122599978D01*
X105543333Y-122599978D02*
X105495714Y-122695216D01*
X105495714Y-122695216D02*
X105448095Y-122885692D01*
X105448095Y-122885692D02*
X105448095Y-123123787D01*
X105448095Y-123123787D02*
X105495714Y-123314263D01*
X105495714Y-123314263D02*
X105543333Y-123409501D01*
X105543333Y-123409501D02*
X105590952Y-123457121D01*
X105590952Y-123457121D02*
X105686190Y-123504740D01*
X105686190Y-123504740D02*
X105781428Y-123504740D01*
X105781428Y-123504740D02*
X105876666Y-123457121D01*
X105876666Y-123457121D02*
X105924285Y-123409501D01*
X105924285Y-123409501D02*
X105971904Y-123314263D01*
X105971904Y-123314263D02*
X106019523Y-123123787D01*
X106019523Y-123123787D02*
X106019523Y-122885692D01*
X106019523Y-122885692D02*
X105971904Y-122695216D01*
X105971904Y-122695216D02*
X105924285Y-122599978D01*
X105924285Y-122599978D02*
X105876666Y-122552359D01*
X105876666Y-122552359D02*
X105781428Y-122504740D01*
X88452857Y-161409501D02*
X88500476Y-161457121D01*
X88500476Y-161457121D02*
X88643333Y-161504740D01*
X88643333Y-161504740D02*
X88738571Y-161504740D01*
X88738571Y-161504740D02*
X88881428Y-161457121D01*
X88881428Y-161457121D02*
X88976666Y-161361882D01*
X88976666Y-161361882D02*
X89024285Y-161266644D01*
X89024285Y-161266644D02*
X89071904Y-161076168D01*
X89071904Y-161076168D02*
X89071904Y-160933311D01*
X89071904Y-160933311D02*
X89024285Y-160742835D01*
X89024285Y-160742835D02*
X88976666Y-160647597D01*
X88976666Y-160647597D02*
X88881428Y-160552359D01*
X88881428Y-160552359D02*
X88738571Y-160504740D01*
X88738571Y-160504740D02*
X88643333Y-160504740D01*
X88643333Y-160504740D02*
X88500476Y-160552359D01*
X88500476Y-160552359D02*
X88452857Y-160599978D01*
X87500476Y-161504740D02*
X88071904Y-161504740D01*
X87786190Y-161504740D02*
X87786190Y-160504740D01*
X87786190Y-160504740D02*
X87881428Y-160647597D01*
X87881428Y-160647597D02*
X87976666Y-160742835D01*
X87976666Y-160742835D02*
X88071904Y-160790454D01*
X87167142Y-160504740D02*
X86500476Y-160504740D01*
X86500476Y-160504740D02*
X86929047Y-161504740D01*
X146352857Y-123659501D02*
X146400476Y-123707121D01*
X146400476Y-123707121D02*
X146543333Y-123754740D01*
X146543333Y-123754740D02*
X146638571Y-123754740D01*
X146638571Y-123754740D02*
X146781428Y-123707121D01*
X146781428Y-123707121D02*
X146876666Y-123611882D01*
X146876666Y-123611882D02*
X146924285Y-123516644D01*
X146924285Y-123516644D02*
X146971904Y-123326168D01*
X146971904Y-123326168D02*
X146971904Y-123183311D01*
X146971904Y-123183311D02*
X146924285Y-122992835D01*
X146924285Y-122992835D02*
X146876666Y-122897597D01*
X146876666Y-122897597D02*
X146781428Y-122802359D01*
X146781428Y-122802359D02*
X146638571Y-122754740D01*
X146638571Y-122754740D02*
X146543333Y-122754740D01*
X146543333Y-122754740D02*
X146400476Y-122802359D01*
X146400476Y-122802359D02*
X146352857Y-122849978D01*
X145400476Y-123754740D02*
X145971904Y-123754740D01*
X145686190Y-123754740D02*
X145686190Y-122754740D01*
X145686190Y-122754740D02*
X145781428Y-122897597D01*
X145781428Y-122897597D02*
X145876666Y-122992835D01*
X145876666Y-122992835D02*
X145971904Y-123040454D01*
X145019523Y-122849978D02*
X144971904Y-122802359D01*
X144971904Y-122802359D02*
X144876666Y-122754740D01*
X144876666Y-122754740D02*
X144638571Y-122754740D01*
X144638571Y-122754740D02*
X144543333Y-122802359D01*
X144543333Y-122802359D02*
X144495714Y-122849978D01*
X144495714Y-122849978D02*
X144448095Y-122945216D01*
X144448095Y-122945216D02*
X144448095Y-123040454D01*
X144448095Y-123040454D02*
X144495714Y-123183311D01*
X144495714Y-123183311D02*
X145067142Y-123754740D01*
X145067142Y-123754740D02*
X144448095Y-123754740D01*
X127052857Y-161209501D02*
X127100476Y-161257121D01*
X127100476Y-161257121D02*
X127243333Y-161304740D01*
X127243333Y-161304740D02*
X127338571Y-161304740D01*
X127338571Y-161304740D02*
X127481428Y-161257121D01*
X127481428Y-161257121D02*
X127576666Y-161161882D01*
X127576666Y-161161882D02*
X127624285Y-161066644D01*
X127624285Y-161066644D02*
X127671904Y-160876168D01*
X127671904Y-160876168D02*
X127671904Y-160733311D01*
X127671904Y-160733311D02*
X127624285Y-160542835D01*
X127624285Y-160542835D02*
X127576666Y-160447597D01*
X127576666Y-160447597D02*
X127481428Y-160352359D01*
X127481428Y-160352359D02*
X127338571Y-160304740D01*
X127338571Y-160304740D02*
X127243333Y-160304740D01*
X127243333Y-160304740D02*
X127100476Y-160352359D01*
X127100476Y-160352359D02*
X127052857Y-160399978D01*
X126100476Y-161304740D02*
X126671904Y-161304740D01*
X126386190Y-161304740D02*
X126386190Y-160304740D01*
X126386190Y-160304740D02*
X126481428Y-160447597D01*
X126481428Y-160447597D02*
X126576666Y-160542835D01*
X126576666Y-160542835D02*
X126671904Y-160590454D01*
X125624285Y-161304740D02*
X125433809Y-161304740D01*
X125433809Y-161304740D02*
X125338571Y-161257121D01*
X125338571Y-161257121D02*
X125290952Y-161209501D01*
X125290952Y-161209501D02*
X125195714Y-161066644D01*
X125195714Y-161066644D02*
X125148095Y-160876168D01*
X125148095Y-160876168D02*
X125148095Y-160495216D01*
X125148095Y-160495216D02*
X125195714Y-160399978D01*
X125195714Y-160399978D02*
X125243333Y-160352359D01*
X125243333Y-160352359D02*
X125338571Y-160304740D01*
X125338571Y-160304740D02*
X125529047Y-160304740D01*
X125529047Y-160304740D02*
X125624285Y-160352359D01*
X125624285Y-160352359D02*
X125671904Y-160399978D01*
X125671904Y-160399978D02*
X125719523Y-160495216D01*
X125719523Y-160495216D02*
X125719523Y-160733311D01*
X125719523Y-160733311D02*
X125671904Y-160828549D01*
X125671904Y-160828549D02*
X125624285Y-160876168D01*
X125624285Y-160876168D02*
X125529047Y-160923787D01*
X125529047Y-160923787D02*
X125338571Y-160923787D01*
X125338571Y-160923787D02*
X125243333Y-160876168D01*
X125243333Y-160876168D02*
X125195714Y-160828549D01*
X125195714Y-160828549D02*
X125148095Y-160733311D01*
X106226666Y-104209501D02*
X106274285Y-104257121D01*
X106274285Y-104257121D02*
X106417142Y-104304740D01*
X106417142Y-104304740D02*
X106512380Y-104304740D01*
X106512380Y-104304740D02*
X106655237Y-104257121D01*
X106655237Y-104257121D02*
X106750475Y-104161882D01*
X106750475Y-104161882D02*
X106798094Y-104066644D01*
X106798094Y-104066644D02*
X106845713Y-103876168D01*
X106845713Y-103876168D02*
X106845713Y-103733311D01*
X106845713Y-103733311D02*
X106798094Y-103542835D01*
X106798094Y-103542835D02*
X106750475Y-103447597D01*
X106750475Y-103447597D02*
X106655237Y-103352359D01*
X106655237Y-103352359D02*
X106512380Y-103304740D01*
X106512380Y-103304740D02*
X106417142Y-103304740D01*
X106417142Y-103304740D02*
X106274285Y-103352359D01*
X106274285Y-103352359D02*
X106226666Y-103399978D01*
X105369523Y-103304740D02*
X105559999Y-103304740D01*
X105559999Y-103304740D02*
X105655237Y-103352359D01*
X105655237Y-103352359D02*
X105702856Y-103399978D01*
X105702856Y-103399978D02*
X105798094Y-103542835D01*
X105798094Y-103542835D02*
X105845713Y-103733311D01*
X105845713Y-103733311D02*
X105845713Y-104114263D01*
X105845713Y-104114263D02*
X105798094Y-104209501D01*
X105798094Y-104209501D02*
X105750475Y-104257121D01*
X105750475Y-104257121D02*
X105655237Y-104304740D01*
X105655237Y-104304740D02*
X105464761Y-104304740D01*
X105464761Y-104304740D02*
X105369523Y-104257121D01*
X105369523Y-104257121D02*
X105321904Y-104209501D01*
X105321904Y-104209501D02*
X105274285Y-104114263D01*
X105274285Y-104114263D02*
X105274285Y-103876168D01*
X105274285Y-103876168D02*
X105321904Y-103780930D01*
X105321904Y-103780930D02*
X105369523Y-103733311D01*
X105369523Y-103733311D02*
X105464761Y-103685692D01*
X105464761Y-103685692D02*
X105655237Y-103685692D01*
X105655237Y-103685692D02*
X105750475Y-103733311D01*
X105750475Y-103733311D02*
X105798094Y-103780930D01*
X105798094Y-103780930D02*
X105845713Y-103876168D01*
X86826666Y-104459501D02*
X86874285Y-104507121D01*
X86874285Y-104507121D02*
X87017142Y-104554740D01*
X87017142Y-104554740D02*
X87112380Y-104554740D01*
X87112380Y-104554740D02*
X87255237Y-104507121D01*
X87255237Y-104507121D02*
X87350475Y-104411882D01*
X87350475Y-104411882D02*
X87398094Y-104316644D01*
X87398094Y-104316644D02*
X87445713Y-104126168D01*
X87445713Y-104126168D02*
X87445713Y-103983311D01*
X87445713Y-103983311D02*
X87398094Y-103792835D01*
X87398094Y-103792835D02*
X87350475Y-103697597D01*
X87350475Y-103697597D02*
X87255237Y-103602359D01*
X87255237Y-103602359D02*
X87112380Y-103554740D01*
X87112380Y-103554740D02*
X87017142Y-103554740D01*
X87017142Y-103554740D02*
X86874285Y-103602359D01*
X86874285Y-103602359D02*
X86826666Y-103649978D01*
X85921904Y-103554740D02*
X86398094Y-103554740D01*
X86398094Y-103554740D02*
X86445713Y-104030930D01*
X86445713Y-104030930D02*
X86398094Y-103983311D01*
X86398094Y-103983311D02*
X86302856Y-103935692D01*
X86302856Y-103935692D02*
X86064761Y-103935692D01*
X86064761Y-103935692D02*
X85969523Y-103983311D01*
X85969523Y-103983311D02*
X85921904Y-104030930D01*
X85921904Y-104030930D02*
X85874285Y-104126168D01*
X85874285Y-104126168D02*
X85874285Y-104364263D01*
X85874285Y-104364263D02*
X85921904Y-104459501D01*
X85921904Y-104459501D02*
X85969523Y-104507121D01*
X85969523Y-104507121D02*
X86064761Y-104554740D01*
X86064761Y-104554740D02*
X86302856Y-104554740D01*
X86302856Y-104554740D02*
X86398094Y-104507121D01*
X86398094Y-104507121D02*
X86445713Y-104459501D01*
X146126666Y-104459501D02*
X146174285Y-104507121D01*
X146174285Y-104507121D02*
X146317142Y-104554740D01*
X146317142Y-104554740D02*
X146412380Y-104554740D01*
X146412380Y-104554740D02*
X146555237Y-104507121D01*
X146555237Y-104507121D02*
X146650475Y-104411882D01*
X146650475Y-104411882D02*
X146698094Y-104316644D01*
X146698094Y-104316644D02*
X146745713Y-104126168D01*
X146745713Y-104126168D02*
X146745713Y-103983311D01*
X146745713Y-103983311D02*
X146698094Y-103792835D01*
X146698094Y-103792835D02*
X146650475Y-103697597D01*
X146650475Y-103697597D02*
X146555237Y-103602359D01*
X146555237Y-103602359D02*
X146412380Y-103554740D01*
X146412380Y-103554740D02*
X146317142Y-103554740D01*
X146317142Y-103554740D02*
X146174285Y-103602359D01*
X146174285Y-103602359D02*
X146126666Y-103649978D01*
X145555237Y-103983311D02*
X145650475Y-103935692D01*
X145650475Y-103935692D02*
X145698094Y-103888073D01*
X145698094Y-103888073D02*
X145745713Y-103792835D01*
X145745713Y-103792835D02*
X145745713Y-103745216D01*
X145745713Y-103745216D02*
X145698094Y-103649978D01*
X145698094Y-103649978D02*
X145650475Y-103602359D01*
X145650475Y-103602359D02*
X145555237Y-103554740D01*
X145555237Y-103554740D02*
X145364761Y-103554740D01*
X145364761Y-103554740D02*
X145269523Y-103602359D01*
X145269523Y-103602359D02*
X145221904Y-103649978D01*
X145221904Y-103649978D02*
X145174285Y-103745216D01*
X145174285Y-103745216D02*
X145174285Y-103792835D01*
X145174285Y-103792835D02*
X145221904Y-103888073D01*
X145221904Y-103888073D02*
X145269523Y-103935692D01*
X145269523Y-103935692D02*
X145364761Y-103983311D01*
X145364761Y-103983311D02*
X145555237Y-103983311D01*
X145555237Y-103983311D02*
X145650475Y-104030930D01*
X145650475Y-104030930D02*
X145698094Y-104078549D01*
X145698094Y-104078549D02*
X145745713Y-104173787D01*
X145745713Y-104173787D02*
X145745713Y-104364263D01*
X145745713Y-104364263D02*
X145698094Y-104459501D01*
X145698094Y-104459501D02*
X145650475Y-104507121D01*
X145650475Y-104507121D02*
X145555237Y-104554740D01*
X145555237Y-104554740D02*
X145364761Y-104554740D01*
X145364761Y-104554740D02*
X145269523Y-104507121D01*
X145269523Y-104507121D02*
X145221904Y-104459501D01*
X145221904Y-104459501D02*
X145174285Y-104364263D01*
X145174285Y-104364263D02*
X145174285Y-104173787D01*
X145174285Y-104173787D02*
X145221904Y-104078549D01*
X145221904Y-104078549D02*
X145269523Y-104030930D01*
X145269523Y-104030930D02*
X145364761Y-103983311D01*
X126602857Y-141809501D02*
X126650476Y-141857121D01*
X126650476Y-141857121D02*
X126793333Y-141904740D01*
X126793333Y-141904740D02*
X126888571Y-141904740D01*
X126888571Y-141904740D02*
X127031428Y-141857121D01*
X127031428Y-141857121D02*
X127126666Y-141761882D01*
X127126666Y-141761882D02*
X127174285Y-141666644D01*
X127174285Y-141666644D02*
X127221904Y-141476168D01*
X127221904Y-141476168D02*
X127221904Y-141333311D01*
X127221904Y-141333311D02*
X127174285Y-141142835D01*
X127174285Y-141142835D02*
X127126666Y-141047597D01*
X127126666Y-141047597D02*
X127031428Y-140952359D01*
X127031428Y-140952359D02*
X126888571Y-140904740D01*
X126888571Y-140904740D02*
X126793333Y-140904740D01*
X126793333Y-140904740D02*
X126650476Y-140952359D01*
X126650476Y-140952359D02*
X126602857Y-140999978D01*
X125650476Y-141904740D02*
X126221904Y-141904740D01*
X125936190Y-141904740D02*
X125936190Y-140904740D01*
X125936190Y-140904740D02*
X126031428Y-141047597D01*
X126031428Y-141047597D02*
X126126666Y-141142835D01*
X126126666Y-141142835D02*
X126221904Y-141190454D01*
X124745714Y-140904740D02*
X125221904Y-140904740D01*
X125221904Y-140904740D02*
X125269523Y-141380930D01*
X125269523Y-141380930D02*
X125221904Y-141333311D01*
X125221904Y-141333311D02*
X125126666Y-141285692D01*
X125126666Y-141285692D02*
X124888571Y-141285692D01*
X124888571Y-141285692D02*
X124793333Y-141333311D01*
X124793333Y-141333311D02*
X124745714Y-141380930D01*
X124745714Y-141380930D02*
X124698095Y-141476168D01*
X124698095Y-141476168D02*
X124698095Y-141714263D01*
X124698095Y-141714263D02*
X124745714Y-141809501D01*
X124745714Y-141809501D02*
X124793333Y-141857121D01*
X124793333Y-141857121D02*
X124888571Y-141904740D01*
X124888571Y-141904740D02*
X125126666Y-141904740D01*
X125126666Y-141904740D02*
X125221904Y-141857121D01*
X125221904Y-141857121D02*
X125269523Y-141809501D01*
X145452857Y-142009501D02*
X145500476Y-142057121D01*
X145500476Y-142057121D02*
X145643333Y-142104740D01*
X145643333Y-142104740D02*
X145738571Y-142104740D01*
X145738571Y-142104740D02*
X145881428Y-142057121D01*
X145881428Y-142057121D02*
X145976666Y-141961882D01*
X145976666Y-141961882D02*
X146024285Y-141866644D01*
X146024285Y-141866644D02*
X146071904Y-141676168D01*
X146071904Y-141676168D02*
X146071904Y-141533311D01*
X146071904Y-141533311D02*
X146024285Y-141342835D01*
X146024285Y-141342835D02*
X145976666Y-141247597D01*
X145976666Y-141247597D02*
X145881428Y-141152359D01*
X145881428Y-141152359D02*
X145738571Y-141104740D01*
X145738571Y-141104740D02*
X145643333Y-141104740D01*
X145643333Y-141104740D02*
X145500476Y-141152359D01*
X145500476Y-141152359D02*
X145452857Y-141199978D01*
X144500476Y-142104740D02*
X145071904Y-142104740D01*
X144786190Y-142104740D02*
X144786190Y-141104740D01*
X144786190Y-141104740D02*
X144881428Y-141247597D01*
X144881428Y-141247597D02*
X144976666Y-141342835D01*
X144976666Y-141342835D02*
X145071904Y-141390454D01*
X143643333Y-141104740D02*
X143833809Y-141104740D01*
X143833809Y-141104740D02*
X143929047Y-141152359D01*
X143929047Y-141152359D02*
X143976666Y-141199978D01*
X143976666Y-141199978D02*
X144071904Y-141342835D01*
X144071904Y-141342835D02*
X144119523Y-141533311D01*
X144119523Y-141533311D02*
X144119523Y-141914263D01*
X144119523Y-141914263D02*
X144071904Y-142009501D01*
X144071904Y-142009501D02*
X144024285Y-142057121D01*
X144024285Y-142057121D02*
X143929047Y-142104740D01*
X143929047Y-142104740D02*
X143738571Y-142104740D01*
X143738571Y-142104740D02*
X143643333Y-142057121D01*
X143643333Y-142057121D02*
X143595714Y-142009501D01*
X143595714Y-142009501D02*
X143548095Y-141914263D01*
X143548095Y-141914263D02*
X143548095Y-141676168D01*
X143548095Y-141676168D02*
X143595714Y-141580930D01*
X143595714Y-141580930D02*
X143643333Y-141533311D01*
X143643333Y-141533311D02*
X143738571Y-141485692D01*
X143738571Y-141485692D02*
X143929047Y-141485692D01*
X143929047Y-141485692D02*
X144024285Y-141533311D01*
X144024285Y-141533311D02*
X144071904Y-141580930D01*
X144071904Y-141580930D02*
X144119523Y-141676168D01*
X107652857Y-160959501D02*
X107700476Y-161007121D01*
X107700476Y-161007121D02*
X107843333Y-161054740D01*
X107843333Y-161054740D02*
X107938571Y-161054740D01*
X107938571Y-161054740D02*
X108081428Y-161007121D01*
X108081428Y-161007121D02*
X108176666Y-160911882D01*
X108176666Y-160911882D02*
X108224285Y-160816644D01*
X108224285Y-160816644D02*
X108271904Y-160626168D01*
X108271904Y-160626168D02*
X108271904Y-160483311D01*
X108271904Y-160483311D02*
X108224285Y-160292835D01*
X108224285Y-160292835D02*
X108176666Y-160197597D01*
X108176666Y-160197597D02*
X108081428Y-160102359D01*
X108081428Y-160102359D02*
X107938571Y-160054740D01*
X107938571Y-160054740D02*
X107843333Y-160054740D01*
X107843333Y-160054740D02*
X107700476Y-160102359D01*
X107700476Y-160102359D02*
X107652857Y-160149978D01*
X106700476Y-161054740D02*
X107271904Y-161054740D01*
X106986190Y-161054740D02*
X106986190Y-160054740D01*
X106986190Y-160054740D02*
X107081428Y-160197597D01*
X107081428Y-160197597D02*
X107176666Y-160292835D01*
X107176666Y-160292835D02*
X107271904Y-160340454D01*
X106129047Y-160483311D02*
X106224285Y-160435692D01*
X106224285Y-160435692D02*
X106271904Y-160388073D01*
X106271904Y-160388073D02*
X106319523Y-160292835D01*
X106319523Y-160292835D02*
X106319523Y-160245216D01*
X106319523Y-160245216D02*
X106271904Y-160149978D01*
X106271904Y-160149978D02*
X106224285Y-160102359D01*
X106224285Y-160102359D02*
X106129047Y-160054740D01*
X106129047Y-160054740D02*
X105938571Y-160054740D01*
X105938571Y-160054740D02*
X105843333Y-160102359D01*
X105843333Y-160102359D02*
X105795714Y-160149978D01*
X105795714Y-160149978D02*
X105748095Y-160245216D01*
X105748095Y-160245216D02*
X105748095Y-160292835D01*
X105748095Y-160292835D02*
X105795714Y-160388073D01*
X105795714Y-160388073D02*
X105843333Y-160435692D01*
X105843333Y-160435692D02*
X105938571Y-160483311D01*
X105938571Y-160483311D02*
X106129047Y-160483311D01*
X106129047Y-160483311D02*
X106224285Y-160530930D01*
X106224285Y-160530930D02*
X106271904Y-160578549D01*
X106271904Y-160578549D02*
X106319523Y-160673787D01*
X106319523Y-160673787D02*
X106319523Y-160864263D01*
X106319523Y-160864263D02*
X106271904Y-160959501D01*
X106271904Y-160959501D02*
X106224285Y-161007121D01*
X106224285Y-161007121D02*
X106129047Y-161054740D01*
X106129047Y-161054740D02*
X105938571Y-161054740D01*
X105938571Y-161054740D02*
X105843333Y-161007121D01*
X105843333Y-161007121D02*
X105795714Y-160959501D01*
X105795714Y-160959501D02*
X105748095Y-160864263D01*
X105748095Y-160864263D02*
X105748095Y-160673787D01*
X105748095Y-160673787D02*
X105795714Y-160578549D01*
X105795714Y-160578549D02*
X105843333Y-160530930D01*
X105843333Y-160530930D02*
X105938571Y-160483311D01*
X125426666Y-104459501D02*
X125474285Y-104507121D01*
X125474285Y-104507121D02*
X125617142Y-104554740D01*
X125617142Y-104554740D02*
X125712380Y-104554740D01*
X125712380Y-104554740D02*
X125855237Y-104507121D01*
X125855237Y-104507121D02*
X125950475Y-104411882D01*
X125950475Y-104411882D02*
X125998094Y-104316644D01*
X125998094Y-104316644D02*
X126045713Y-104126168D01*
X126045713Y-104126168D02*
X126045713Y-103983311D01*
X126045713Y-103983311D02*
X125998094Y-103792835D01*
X125998094Y-103792835D02*
X125950475Y-103697597D01*
X125950475Y-103697597D02*
X125855237Y-103602359D01*
X125855237Y-103602359D02*
X125712380Y-103554740D01*
X125712380Y-103554740D02*
X125617142Y-103554740D01*
X125617142Y-103554740D02*
X125474285Y-103602359D01*
X125474285Y-103602359D02*
X125426666Y-103649978D01*
X125093332Y-103554740D02*
X124426666Y-103554740D01*
X124426666Y-103554740D02*
X124855237Y-104554740D01*
X128523339Y-121334025D02*
X128047149Y-121334025D01*
X128618577Y-121619740D02*
X128285244Y-120619740D01*
X128285244Y-120619740D02*
X127951911Y-121619740D01*
X127094768Y-121619740D02*
X127666196Y-121619740D01*
X127380482Y-121619740D02*
X127380482Y-120619740D01*
X127380482Y-120619740D02*
X127475720Y-120762597D01*
X127475720Y-120762597D02*
X127570958Y-120857835D01*
X127570958Y-120857835D02*
X127666196Y-120905454D01*
X107202857Y-142009501D02*
X107250476Y-142057121D01*
X107250476Y-142057121D02*
X107393333Y-142104740D01*
X107393333Y-142104740D02*
X107488571Y-142104740D01*
X107488571Y-142104740D02*
X107631428Y-142057121D01*
X107631428Y-142057121D02*
X107726666Y-141961882D01*
X107726666Y-141961882D02*
X107774285Y-141866644D01*
X107774285Y-141866644D02*
X107821904Y-141676168D01*
X107821904Y-141676168D02*
X107821904Y-141533311D01*
X107821904Y-141533311D02*
X107774285Y-141342835D01*
X107774285Y-141342835D02*
X107726666Y-141247597D01*
X107726666Y-141247597D02*
X107631428Y-141152359D01*
X107631428Y-141152359D02*
X107488571Y-141104740D01*
X107488571Y-141104740D02*
X107393333Y-141104740D01*
X107393333Y-141104740D02*
X107250476Y-141152359D01*
X107250476Y-141152359D02*
X107202857Y-141199978D01*
X106250476Y-142104740D02*
X106821904Y-142104740D01*
X106536190Y-142104740D02*
X106536190Y-141104740D01*
X106536190Y-141104740D02*
X106631428Y-141247597D01*
X106631428Y-141247597D02*
X106726666Y-141342835D01*
X106726666Y-141342835D02*
X106821904Y-141390454D01*
X105393333Y-141438073D02*
X105393333Y-142104740D01*
X105631428Y-141057121D02*
X105869523Y-141771406D01*
X105869523Y-141771406D02*
X105250476Y-141771406D01*
X145652857Y-161009501D02*
X145700476Y-161057121D01*
X145700476Y-161057121D02*
X145843333Y-161104740D01*
X145843333Y-161104740D02*
X145938571Y-161104740D01*
X145938571Y-161104740D02*
X146081428Y-161057121D01*
X146081428Y-161057121D02*
X146176666Y-160961882D01*
X146176666Y-160961882D02*
X146224285Y-160866644D01*
X146224285Y-160866644D02*
X146271904Y-160676168D01*
X146271904Y-160676168D02*
X146271904Y-160533311D01*
X146271904Y-160533311D02*
X146224285Y-160342835D01*
X146224285Y-160342835D02*
X146176666Y-160247597D01*
X146176666Y-160247597D02*
X146081428Y-160152359D01*
X146081428Y-160152359D02*
X145938571Y-160104740D01*
X145938571Y-160104740D02*
X145843333Y-160104740D01*
X145843333Y-160104740D02*
X145700476Y-160152359D01*
X145700476Y-160152359D02*
X145652857Y-160199978D01*
X145271904Y-160199978D02*
X145224285Y-160152359D01*
X145224285Y-160152359D02*
X145129047Y-160104740D01*
X145129047Y-160104740D02*
X144890952Y-160104740D01*
X144890952Y-160104740D02*
X144795714Y-160152359D01*
X144795714Y-160152359D02*
X144748095Y-160199978D01*
X144748095Y-160199978D02*
X144700476Y-160295216D01*
X144700476Y-160295216D02*
X144700476Y-160390454D01*
X144700476Y-160390454D02*
X144748095Y-160533311D01*
X144748095Y-160533311D02*
X145319523Y-161104740D01*
X145319523Y-161104740D02*
X144700476Y-161104740D01*
X144081428Y-160104740D02*
X143986190Y-160104740D01*
X143986190Y-160104740D02*
X143890952Y-160152359D01*
X143890952Y-160152359D02*
X143843333Y-160199978D01*
X143843333Y-160199978D02*
X143795714Y-160295216D01*
X143795714Y-160295216D02*
X143748095Y-160485692D01*
X143748095Y-160485692D02*
X143748095Y-160723787D01*
X143748095Y-160723787D02*
X143795714Y-160914263D01*
X143795714Y-160914263D02*
X143843333Y-161009501D01*
X143843333Y-161009501D02*
X143890952Y-161057121D01*
X143890952Y-161057121D02*
X143986190Y-161104740D01*
X143986190Y-161104740D02*
X144081428Y-161104740D01*
X144081428Y-161104740D02*
X144176666Y-161057121D01*
X144176666Y-161057121D02*
X144224285Y-161009501D01*
X144224285Y-161009501D02*
X144271904Y-160914263D01*
X144271904Y-160914263D02*
X144319523Y-160723787D01*
X144319523Y-160723787D02*
X144319523Y-160485692D01*
X144319523Y-160485692D02*
X144271904Y-160295216D01*
X144271904Y-160295216D02*
X144224285Y-160199978D01*
X144224285Y-160199978D02*
X144176666Y-160152359D01*
X144176666Y-160152359D02*
X144081428Y-160104740D01*
X88052857Y-142459501D02*
X88100476Y-142507121D01*
X88100476Y-142507121D02*
X88243333Y-142554740D01*
X88243333Y-142554740D02*
X88338571Y-142554740D01*
X88338571Y-142554740D02*
X88481428Y-142507121D01*
X88481428Y-142507121D02*
X88576666Y-142411882D01*
X88576666Y-142411882D02*
X88624285Y-142316644D01*
X88624285Y-142316644D02*
X88671904Y-142126168D01*
X88671904Y-142126168D02*
X88671904Y-141983311D01*
X88671904Y-141983311D02*
X88624285Y-141792835D01*
X88624285Y-141792835D02*
X88576666Y-141697597D01*
X88576666Y-141697597D02*
X88481428Y-141602359D01*
X88481428Y-141602359D02*
X88338571Y-141554740D01*
X88338571Y-141554740D02*
X88243333Y-141554740D01*
X88243333Y-141554740D02*
X88100476Y-141602359D01*
X88100476Y-141602359D02*
X88052857Y-141649978D01*
X87100476Y-142554740D02*
X87671904Y-142554740D01*
X87386190Y-142554740D02*
X87386190Y-141554740D01*
X87386190Y-141554740D02*
X87481428Y-141697597D01*
X87481428Y-141697597D02*
X87576666Y-141792835D01*
X87576666Y-141792835D02*
X87671904Y-141840454D01*
X86767142Y-141554740D02*
X86148095Y-141554740D01*
X86148095Y-141554740D02*
X86481428Y-141935692D01*
X86481428Y-141935692D02*
X86338571Y-141935692D01*
X86338571Y-141935692D02*
X86243333Y-141983311D01*
X86243333Y-141983311D02*
X86195714Y-142030930D01*
X86195714Y-142030930D02*
X86148095Y-142126168D01*
X86148095Y-142126168D02*
X86148095Y-142364263D01*
X86148095Y-142364263D02*
X86195714Y-142459501D01*
X86195714Y-142459501D02*
X86243333Y-142507121D01*
X86243333Y-142507121D02*
X86338571Y-142554740D01*
X86338571Y-142554740D02*
X86624285Y-142554740D01*
X86624285Y-142554740D02*
X86719523Y-142507121D01*
X86719523Y-142507121D02*
X86767142Y-142459501D01*
X126752857Y-123659501D02*
X126800476Y-123707121D01*
X126800476Y-123707121D02*
X126943333Y-123754740D01*
X126943333Y-123754740D02*
X127038571Y-123754740D01*
X127038571Y-123754740D02*
X127181428Y-123707121D01*
X127181428Y-123707121D02*
X127276666Y-123611882D01*
X127276666Y-123611882D02*
X127324285Y-123516644D01*
X127324285Y-123516644D02*
X127371904Y-123326168D01*
X127371904Y-123326168D02*
X127371904Y-123183311D01*
X127371904Y-123183311D02*
X127324285Y-122992835D01*
X127324285Y-122992835D02*
X127276666Y-122897597D01*
X127276666Y-122897597D02*
X127181428Y-122802359D01*
X127181428Y-122802359D02*
X127038571Y-122754740D01*
X127038571Y-122754740D02*
X126943333Y-122754740D01*
X126943333Y-122754740D02*
X126800476Y-122802359D01*
X126800476Y-122802359D02*
X126752857Y-122849978D01*
X125800476Y-123754740D02*
X126371904Y-123754740D01*
X126086190Y-123754740D02*
X126086190Y-122754740D01*
X126086190Y-122754740D02*
X126181428Y-122897597D01*
X126181428Y-122897597D02*
X126276666Y-122992835D01*
X126276666Y-122992835D02*
X126371904Y-123040454D01*
X124848095Y-123754740D02*
X125419523Y-123754740D01*
X125133809Y-123754740D02*
X125133809Y-122754740D01*
X125133809Y-122754740D02*
X125229047Y-122897597D01*
X125229047Y-122897597D02*
X125324285Y-122992835D01*
X125324285Y-122992835D02*
X125419523Y-123040454D01*
X87076666Y-123409501D02*
X87124285Y-123457121D01*
X87124285Y-123457121D02*
X87267142Y-123504740D01*
X87267142Y-123504740D02*
X87362380Y-123504740D01*
X87362380Y-123504740D02*
X87505237Y-123457121D01*
X87505237Y-123457121D02*
X87600475Y-123361882D01*
X87600475Y-123361882D02*
X87648094Y-123266644D01*
X87648094Y-123266644D02*
X87695713Y-123076168D01*
X87695713Y-123076168D02*
X87695713Y-122933311D01*
X87695713Y-122933311D02*
X87648094Y-122742835D01*
X87648094Y-122742835D02*
X87600475Y-122647597D01*
X87600475Y-122647597D02*
X87505237Y-122552359D01*
X87505237Y-122552359D02*
X87362380Y-122504740D01*
X87362380Y-122504740D02*
X87267142Y-122504740D01*
X87267142Y-122504740D02*
X87124285Y-122552359D01*
X87124285Y-122552359D02*
X87076666Y-122599978D01*
X86600475Y-123504740D02*
X86409999Y-123504740D01*
X86409999Y-123504740D02*
X86314761Y-123457121D01*
X86314761Y-123457121D02*
X86267142Y-123409501D01*
X86267142Y-123409501D02*
X86171904Y-123266644D01*
X86171904Y-123266644D02*
X86124285Y-123076168D01*
X86124285Y-123076168D02*
X86124285Y-122695216D01*
X86124285Y-122695216D02*
X86171904Y-122599978D01*
X86171904Y-122599978D02*
X86219523Y-122552359D01*
X86219523Y-122552359D02*
X86314761Y-122504740D01*
X86314761Y-122504740D02*
X86505237Y-122504740D01*
X86505237Y-122504740D02*
X86600475Y-122552359D01*
X86600475Y-122552359D02*
X86648094Y-122599978D01*
X86648094Y-122599978D02*
X86695713Y-122695216D01*
X86695713Y-122695216D02*
X86695713Y-122933311D01*
X86695713Y-122933311D02*
X86648094Y-123028549D01*
X86648094Y-123028549D02*
X86600475Y-123076168D01*
X86600475Y-123076168D02*
X86505237Y-123123787D01*
X86505237Y-123123787D02*
X86314761Y-123123787D01*
X86314761Y-123123787D02*
X86219523Y-123076168D01*
X86219523Y-123076168D02*
X86171904Y-123028549D01*
X86171904Y-123028549D02*
X86124285Y-122933311D01*
D11*
%TO.C,C10*%
X101090000Y-121929921D02*
X101090000Y-122077921D01*
X101090000Y-124021921D02*
X101090000Y-124169921D01*
X104330000Y-121929921D02*
X101090000Y-121929921D01*
X104330000Y-121929921D02*
X104330000Y-122077921D01*
X104330000Y-124021921D02*
X104330000Y-124169921D01*
X104330000Y-124169921D02*
X101090000Y-124169921D01*
%TO.C,C17*%
X81940000Y-159929921D02*
X81940000Y-160077921D01*
X81940000Y-162021921D02*
X81940000Y-162169921D01*
X85180000Y-159929921D02*
X81940000Y-159929921D01*
X85180000Y-159929921D02*
X85180000Y-160077921D01*
X85180000Y-162021921D02*
X85180000Y-162169921D01*
X85180000Y-162169921D02*
X81940000Y-162169921D01*
%TO.C,C12*%
X139090000Y-121929921D02*
X139090000Y-122077921D01*
X139090000Y-124021921D02*
X139090000Y-124169921D01*
X142330000Y-121929921D02*
X139090000Y-121929921D01*
X142330000Y-121929921D02*
X142330000Y-122077921D01*
X142330000Y-124021921D02*
X142330000Y-124169921D01*
X142330000Y-124169921D02*
X139090000Y-124169921D01*
%TO.C,C19*%
X120540000Y-159729921D02*
X120540000Y-159877921D01*
X120540000Y-161821921D02*
X120540000Y-161969921D01*
X123780000Y-159729921D02*
X120540000Y-159729921D01*
X123780000Y-159729921D02*
X123780000Y-159877921D01*
X123780000Y-161821921D02*
X123780000Y-161969921D01*
X123780000Y-161969921D02*
X120540000Y-161969921D01*
%TO.C,C6*%
X100940000Y-102729921D02*
X100940000Y-102877921D01*
X100940000Y-104821921D02*
X100940000Y-104969921D01*
X104180000Y-102729921D02*
X100940000Y-102729921D01*
X104180000Y-102729921D02*
X104180000Y-102877921D01*
X104180000Y-104821921D02*
X104180000Y-104969921D01*
X104180000Y-104969921D02*
X100940000Y-104969921D01*
%TO.C,C5*%
X81540000Y-102729921D02*
X81540000Y-102877921D01*
X81540000Y-104821921D02*
X81540000Y-104969921D01*
X84780000Y-102729921D02*
X81540000Y-102729921D01*
X84780000Y-102729921D02*
X84780000Y-102877921D01*
X84780000Y-104821921D02*
X84780000Y-104969921D01*
X84780000Y-104969921D02*
X81540000Y-104969921D01*
%TO.C,C8*%
X139340000Y-102729921D02*
X139340000Y-102877921D01*
X139340000Y-104821921D02*
X139340000Y-104969921D01*
X142580000Y-102729921D02*
X139340000Y-102729921D01*
X142580000Y-102729921D02*
X142580000Y-102877921D01*
X142580000Y-104821921D02*
X142580000Y-104969921D01*
X142580000Y-104969921D02*
X139340000Y-104969921D01*
%TO.C,C15*%
X120340000Y-140329921D02*
X120340000Y-140477921D01*
X120340000Y-142421921D02*
X120340000Y-142569921D01*
X123580000Y-140329921D02*
X120340000Y-140329921D01*
X123580000Y-140329921D02*
X123580000Y-140477921D01*
X123580000Y-142421921D02*
X123580000Y-142569921D01*
X123580000Y-142569921D02*
X120340000Y-142569921D01*
%TO.C,C16*%
X138940000Y-140529921D02*
X138940000Y-140677921D01*
X138940000Y-142621921D02*
X138940000Y-142769921D01*
X142180000Y-140529921D02*
X138940000Y-140529921D01*
X142180000Y-140529921D02*
X142180000Y-140677921D01*
X142180000Y-142621921D02*
X142180000Y-142769921D01*
X142180000Y-142769921D02*
X138940000Y-142769921D01*
%TO.C,C18*%
X101140000Y-159729921D02*
X101140000Y-159877921D01*
X101140000Y-161821921D02*
X101140000Y-161969921D01*
X104380000Y-159729921D02*
X101140000Y-159729921D01*
X104380000Y-159729921D02*
X104380000Y-159877921D01*
X104380000Y-161821921D02*
X104380000Y-161969921D01*
X104380000Y-161969921D02*
X101140000Y-161969921D01*
%TO.C,C7*%
X119890000Y-102729921D02*
X119890000Y-102877921D01*
X119890000Y-104821921D02*
X119890000Y-104969921D01*
X123130000Y-102729921D02*
X119890000Y-102729921D01*
X123130000Y-102729921D02*
X123130000Y-102877921D01*
X123130000Y-104821921D02*
X123130000Y-104969921D01*
X123130000Y-104969921D02*
X119890000Y-104969921D01*
%TO.C,A1*%
X129950000Y-71399921D02*
X129950000Y-121399921D01*
X130290000Y-121946921D02*
X130290000Y-70852921D01*
X130560000Y-70789921D02*
X133050000Y-70789921D01*
X133050000Y-70789921D02*
X133050000Y-71703441D01*
X133050000Y-74096401D02*
X133050000Y-118703441D01*
X133050000Y-121096401D02*
X133050000Y-122009921D01*
X134397939Y-70789921D02*
X133050000Y-70789921D01*
X134397939Y-122009921D02*
X130560000Y-122009921D01*
X135322061Y-122009921D02*
X136960000Y-122009921D01*
X136325000Y-70789921D02*
X135322061Y-70789921D01*
X136450000Y-69489921D02*
X136450000Y-70309921D01*
X136450000Y-70309921D02*
X136660000Y-70309921D01*
X136660000Y-70309921D02*
X136660000Y-71705921D01*
X136660000Y-74093921D02*
X136660000Y-75309921D01*
X136660000Y-75309921D02*
X144460000Y-75309921D01*
X144160000Y-122009921D02*
X145797939Y-122009921D01*
X144460000Y-70309921D02*
X144460000Y-71705921D01*
X144460000Y-74093921D02*
X144460000Y-75309921D01*
X144670000Y-69489921D02*
X136450000Y-69489921D01*
X144670000Y-69489921D02*
X144670000Y-70309921D01*
X144670000Y-70309921D02*
X144460000Y-70309921D01*
X144795000Y-70789921D02*
X136325000Y-70789921D01*
X145797939Y-70789921D02*
X144795000Y-70789921D01*
X148070000Y-70789921D02*
X146722060Y-70789921D01*
X148070000Y-70789921D02*
X148070000Y-71703441D01*
X148070000Y-74096401D02*
X148070000Y-118703441D01*
X148070000Y-121096401D02*
X148070000Y-122009921D01*
X150560000Y-70789921D02*
X148070000Y-70789921D01*
X150560000Y-122009921D02*
X146722061Y-122009921D01*
X150830000Y-70852921D02*
X150830000Y-121946921D01*
X151170000Y-71399921D02*
X151170000Y-121399921D01*
X151490000Y-73069921D02*
X151490000Y-71469921D01*
X129950000Y-71399921D02*
G75*
G02*
X130560000Y-70789921I610000J0D01*
G01*
X150560000Y-70789921D02*
G75*
G02*
X151170000Y-71399921I0J-610000D01*
G01*
%TO.C,C14*%
X100940000Y-140529921D02*
X100940000Y-140677921D01*
X100940000Y-142621921D02*
X100940000Y-142769921D01*
X104180000Y-140529921D02*
X100940000Y-140529921D01*
X104180000Y-140529921D02*
X104180000Y-140677921D01*
X104180000Y-142621921D02*
X104180000Y-142769921D01*
X104180000Y-142769921D02*
X100940000Y-142769921D01*
%TO.C,C20*%
X139140000Y-159529921D02*
X139140000Y-159677921D01*
X139140000Y-161621921D02*
X139140000Y-161769921D01*
X142380000Y-159529921D02*
X139140000Y-159529921D01*
X142380000Y-159529921D02*
X142380000Y-159677921D01*
X142380000Y-161621921D02*
X142380000Y-161769921D01*
X142380000Y-161769921D02*
X139140000Y-161769921D01*
%TO.C,C13*%
X81540000Y-140729921D02*
X81540000Y-140877921D01*
X81540000Y-142821921D02*
X81540000Y-142969921D01*
X84780000Y-140729921D02*
X81540000Y-140729921D01*
X84780000Y-140729921D02*
X84780000Y-140877921D01*
X84780000Y-142821921D02*
X84780000Y-142969921D01*
X84780000Y-142969921D02*
X81540000Y-142969921D01*
%TO.C,C11*%
X120490000Y-121929921D02*
X120490000Y-122077921D01*
X120490000Y-124021921D02*
X120490000Y-124169921D01*
X123730000Y-121929921D02*
X120490000Y-121929921D01*
X123730000Y-121929921D02*
X123730000Y-122077921D01*
X123730000Y-124021921D02*
X123730000Y-124169921D01*
X123730000Y-124169921D02*
X120490000Y-124169921D01*
%TO.C,C9*%
X81540000Y-121929921D02*
X81540000Y-122077921D01*
X81540000Y-124021921D02*
X81540000Y-124169921D01*
X84780000Y-121929921D02*
X81540000Y-121929921D01*
X84780000Y-121929921D02*
X84780000Y-122077921D01*
X84780000Y-124021921D02*
X84780000Y-124169921D01*
X84780000Y-124169921D02*
X81540000Y-124169921D01*
%TD*%
M02*
